<svg xmlns="http://www.w3.org/2000/svg" viewBox="0 0 685.18 167.85">
  <defs>
    <style>
      .cls-1 {
        fill: #000;
      }
    </style>
  </defs>
  <title>Asset 2</title>
  <g id="Layer_2" data-name="Layer 2">
    <g id="Layer_1-2" data-name="Layer 1">
      <path class="cls-1"
        d="M28.47,89.26C27,93.7,25.64,98,24.34,102.16s-2.69,8.32-4.14,12.47A82.2,82.2,0,0,1,16,125.51a9.17,9.17,0,0,1-5.8,5.22,8.13,8.13,0,0,1-6.67-1.16,7.57,7.57,0,0,1-3.34-6.09,30.17,30.17,0,0,1-.14-5.15c.09-1.79.19-3.65.29-5.58A210.41,210.41,0,0,1,7.73,75.41,338.49,338.49,0,0,1,20.49,39.67q2.91-6.83,6.09-13.27t6.24-13a40.45,40.45,0,0,1,3-5.22q1.66-2.46,3.41-5.07a8,8,0,0,1,4.71-3,8.24,8.24,0,0,1,5.15.66q5.36,2.31,4.49,8.84a39.56,39.56,0,0,1-2,8.7,22.9,22.9,0,0,1-.94,4,22.29,22.29,0,0,0-.94,4.42l1.16-.87,1.3-1c2.52-1.94,5-3.89,7.4-5.88s4.93-3.84,7.54-5.58A28.65,28.65,0,0,1,84,8.35a21.37,21.37,0,0,1,8.12,1.52A22.33,22.33,0,0,1,98.79,14a22,22,0,0,1,4.79,6.24,27,27,0,0,1,2.61,8,41.86,41.86,0,0,1,.07,10.66A57.53,57.53,0,0,1,104,49.09a94.91,94.91,0,0,1-6.38,16.75,99.75,99.75,0,0,1-9.42,15.3,54,54,0,0,1-6.6,7.32,92.55,92.55,0,0,1-7.47,6.16A30.33,30.33,0,0,1,48.77,99a67,67,0,0,1-10.3-4A89,89,0,0,1,28.47,89.26ZM38,69.39a24.13,24.13,0,0,0,5.72,2.32q2.84.74,5.88,1.45a11.61,11.61,0,0,0,9.42-2q1.17-.87,2.25-1.74a24.75,24.75,0,0,0,2.1-1.88A114.74,114.74,0,0,0,73,56.34a63.61,63.61,0,0,0,7.4-12.76c.38-1.06,1-2.66,2-4.78a40.2,40.2,0,0,0,2.1-6.17,8.78,8.78,0,0,0,.07-4.85q-.65-1.89-4-1a17.21,17.21,0,0,0-6.16,2.54q-2.69,1.82-5.29,3.84a80.14,80.14,0,0,0-9.86,9.14q-4.5,4.92-8.85,10.44-3,3.91-6.16,8.12T38,69.39Z" />
      <path class="cls-1"
        d="M119.67,106.37c2.22,2.51,4.62,3.6,7.18,3.26a17.13,17.13,0,0,0,7.68-3.26,50.44,50.44,0,0,0,7.54-6.75c2.47-2.65,4.76-5.05,6.89-7.17a4.75,4.75,0,0,1,3.63-1.53,7.89,7.89,0,0,1,3.91,1.24,6.29,6.29,0,0,1,2.83,3.11,8.06,8.06,0,0,1,.51,4.14,18.22,18.22,0,0,1-1.89,5.07A49.77,49.77,0,0,1,142.29,123a30.77,30.77,0,0,1-15.22,5.8,33.25,33.25,0,0,1-15.95-3,30.86,30.86,0,0,1-10.81-11.24,36.69,36.69,0,0,1-4.42-14.21A42.66,42.66,0,0,1,97.2,85.2a48.21,48.21,0,0,1,6.23-14.14A41.79,41.79,0,0,1,114,60a36.13,36.13,0,0,1,14.21-6.24q8-1.44,13.84,1.45a21.75,21.75,0,0,1,9,7.83,18.84,18.84,0,0,1,3.05,10.51,13,13,0,0,1-3.84,9.36,72.12,72.12,0,0,1-7.11,6.45q-3.91,3.12-8,6.09T127,101.07Q123,103.76,119.67,106.37ZM117.5,91.29q4.78-3.35,8.55-6.09A55.16,55.16,0,0,0,132.29,80q4.2-3.92,4.78-6.38c.39-1.65.07-2.76-.94-3.34s-2.47-.55-4.35.07a12.61,12.61,0,0,0-5.44,4Q121.56,79.84,117.5,91.29Z" />
      <path class="cls-1"
        d="M208.26,111.3c-.77.77-1.47,1.52-2.1,2.24s-1.33,1.48-2.1,2.25a73.18,73.18,0,0,1-7.61,6.89A22.9,22.9,0,0,1,187,127q-10.29,2.17-17-5.95a22.33,22.33,0,0,1-3.76-6.16,23.36,23.36,0,0,1-1.6-7q-1.31-29,21.89-46.26a30.32,30.32,0,0,1,13.85-6,25.89,25.89,0,0,1,14.86,2.4,21.82,21.82,0,0,1,4.36,2.53q2,1.53,4.2,3a30.37,30.37,0,0,0,2.54-1.89A14.67,14.67,0,0,1,229,59.82q6.09-3.91,11.17.15c3.28,2.7,4.25,6.14,2.89,10.29q-1.44,3.92-3,7.69c-1,2.51-2,5.12-2.83,7.83l-8.26,23a11.38,11.38,0,0,0,.14,7q2.33,6.09-2.31,9.57a9.08,9.08,0,0,1-5,1.89,8.62,8.62,0,0,1-5.29-1.6,14.17,14.17,0,0,1-4.06-3.91,22.35,22.35,0,0,1-2.61-5.22c-.19-.78-.41-1.57-.65-2.4S208.65,112.36,208.26,111.3Zm-9.42-9.57a61.56,61.56,0,0,0,6.45-7,50.1,50.1,0,0,0,5.3-7.91,15.75,15.75,0,0,0,2.1-6.74q.08-2.9-3.12-3.62a13,13,0,0,0-6.89.36,18.84,18.84,0,0,0-6,3.55,33.61,33.61,0,0,0-8.12,11.31,44,44,0,0,0-3.2,9.93c-.48,2.86-.34,4.91.44,6.17s2.22,1.47,4.35.65S195.17,105.4,198.84,101.73Z" />
      <path class="cls-1"
        d="M242.48,96.8a57.58,57.58,0,0,1,6.82-21.32,54,54,0,0,1,15.37-17q7.83-5.52,15.59-6a21.39,21.39,0,0,1,14.13,4,18.32,18.32,0,0,1,4.93,5.58,15.3,15.3,0,0,1,2,6.6,18.26,18.26,0,0,1-1,7.1,22.5,22.5,0,0,1-4.14,7.11,10.86,10.86,0,0,1-3.19,2.46,5.58,5.58,0,0,1-3.77.44c-2.41-.78-3.62-2.9-3.62-6.38a5.1,5.1,0,0,1,.07-.87,5.1,5.1,0,0,0,.07-.87c.2-2.23-.24-3.77-1.3-4.64s-2.71-.92-4.93-.15a18.14,18.14,0,0,0-3.26,1.6,27.78,27.78,0,0,0-3.12,2.17q-11.46,11.74-10.59,27.55c.29,2.9,1,4.84,2.25,5.8a4.63,4.63,0,0,0,4.21.87,14.52,14.52,0,0,0,5.14-2.61,51.64,51.64,0,0,0,5.3-4.49A61.91,61.91,0,0,0,284,98.83c1.36-1.65,2.37-2.9,3.05-3.77,1.83-2.61,3.82-4.14,5.94-4.57a6.84,6.84,0,0,1,5.44.87,7.5,7.5,0,0,1,3,4.93c.49,2.27,0,4.81-1.45,7.61a44.67,44.67,0,0,1-6.74,9.64,48.85,48.85,0,0,1-9.13,7.91,46.34,46.34,0,0,1-10.44,5.22,25.89,25.89,0,0,1-10.66,1.45,20.91,20.91,0,0,1-9.86-3.48,24.74,24.74,0,0,1-8-9.28,25.08,25.08,0,0,1-2.68-8.85A43.89,43.89,0,0,1,242.48,96.8Z" />
      <path class="cls-1"
        d="M330.35,106.37q3.34,3.76,7.18,3.26a17.21,17.21,0,0,0,7.69-3.26,50.94,50.94,0,0,0,7.54-6.75c2.46-2.65,4.76-5.05,6.88-7.17a4.76,4.76,0,0,1,3.63-1.53,7.86,7.86,0,0,1,3.91,1.24A6.25,6.25,0,0,1,370,95.27a8.06,8.06,0,0,1,.51,4.14,18.22,18.22,0,0,1-1.89,5.07A49.59,49.59,0,0,1,353,123a30.74,30.74,0,0,1-15.22,5.8,33.25,33.25,0,0,1-15.95-3A30.75,30.75,0,0,1,311,114.56a36.7,36.7,0,0,1-4.43-14.21,42.66,42.66,0,0,1,1.31-15.15,48.21,48.21,0,0,1,6.23-14.14A42,42,0,0,1,324.7,60a36.13,36.13,0,0,1,14.21-6.24q8-1.44,13.85,1.45a21.81,21.81,0,0,1,9,7.83,18.91,18.91,0,0,1,3,10.51A13,13,0,0,1,361,82.88a72.12,72.12,0,0,1-7.11,6.45q-3.91,3.12-8,6.09t-8.12,5.65Q333.69,103.76,330.35,106.37Zm-2.17-15.08q4.79-3.35,8.55-6.09A54.28,54.28,0,0,0,343,80c2.8-2.61,4.4-4.74,4.78-6.38s.08-2.76-.94-3.34-2.47-.55-4.35.07a12.67,12.67,0,0,0-5.44,4Q332.24,79.84,328.18,91.29Z" />
      <path class="cls-1"
        d="M421.85,79c1.64.2,3.14.34,4.49.44a28.35,28.35,0,0,1,4.06.58,15.47,15.47,0,0,1,7.18,2.75,9.08,9.08,0,0,1,3.7,5.37,5.44,5.44,0,0,1-.22,2.9,6.61,6.61,0,0,1-1.6,2.53,7.09,7.09,0,0,1-2.61,1.67,7.81,7.81,0,0,1-3.4.44,20.85,20.85,0,0,0-4.5-.15,54.68,54.68,0,0,0-5.94.65c-2,.34-4,.75-5.8,1.24a11.38,11.38,0,0,0-4.06,1.74,6.87,6.87,0,0,0-2.25,3.48q-.66,2.18-1.23,4.2c-1.07,2.81-2,5.54-2.9,8.19s-1.7,5.39-2.47,8.2a55.1,55.1,0,0,0-1.38,6.74c-.43,2.85-.75,5.85-.94,9a73.17,73.17,0,0,0,0,9.13,18.62,18.62,0,0,0,1.6,7,7.72,7.72,0,0,1,.43,6,9.3,9.3,0,0,1-3.7,4.79,12.24,12.24,0,0,1-6.52,2,14.33,14.33,0,0,1-8.05-2.47,19.85,19.85,0,0,1-6.31-5.8,26,26,0,0,1-3.4-7.25,40,40,0,0,1-1.74-11.53,64.89,64.89,0,0,1,1-11.38q1-5.65,2.54-11.09c1-3.63,2-7.27,3-11,.1-.38.19-.8.29-1.23a8.73,8.73,0,0,1,.44-1.38,14.35,14.35,0,0,0-1.53-.43,8.64,8.64,0,0,1-1.37-.44,10.22,10.22,0,0,1-4.57-2.61,7.79,7.79,0,0,1-2.1-3.7,5.9,5.9,0,0,1,.5-3.91,9.07,9.07,0,0,1,3.41-3.55,29.11,29.11,0,0,1,4.5-2.47c1.54-.67,3.19-1.3,4.93-1.88a10.08,10.08,0,0,0,4.13-2.25,12.93,12.93,0,0,0,2.39-3.41q2-4.35,4.64-9.71t5.73-10.66a95.3,95.3,0,0,1,6.89-10.15,47.67,47.67,0,0,1,8.19-8.34A32.47,32.47,0,0,1,426.7,36a22.38,22.38,0,0,1,10.81-.87,2.65,2.65,0,0,0,.87.15,1.68,1.68,0,0,1,.72.14q7,1.6,10.15,5.51t2.18,9.72a39.88,39.88,0,0,1-2,8.55,16.55,16.55,0,0,1-2.4,5,4.84,4.84,0,0,1-5,2,16.11,16.11,0,0,1-5-1.38,8,8,0,0,0-4.79-.65c-1.59.29-3.24,1.48-4.93,3.55S423.78,73.55,421.85,79Z" />
      <path class="cls-1"
        d="M497.39,106.08q-3.92,3.48-7.47,7.1t-7.18,7c-1.25,1.16-2.49,2.25-3.69,3.26a26.07,26.07,0,0,1-3.85,2.69,19.41,19.41,0,0,1-7,2.53,15,15,0,0,1-6.59-.43,15.25,15.25,0,0,1-5.8-3.34,18.87,18.87,0,0,1-4.43-6,31.85,31.85,0,0,1-3.4-10.15A46.66,46.66,0,0,1,447.65,98a81.53,81.53,0,0,1,1.82-11.68,78.67,78.67,0,0,1,4.27-13.63,43.25,43.25,0,0,1,6.82-11.38,13.14,13.14,0,0,1,9.57-5.07,8.88,8.88,0,0,1,7.68,3,9.38,9.38,0,0,1,2.18,8,57.53,57.53,0,0,1-2.18,7.25c-.38,1.06-.72,2.08-1,3l-.87,2.9a111.51,111.51,0,0,0-4.21,15.88q-.87,5.58.08,7.76a2.26,2.26,0,0,0,3.26,1.3,19.13,19.13,0,0,0,5.36-3.48,55.72,55.72,0,0,0,6.38-6.6c2.23-2.65,4.35-5.34,6.38-8q3.92-5.52,7.76-11.82t6.89-11.82q2.75-5.36,8-6.38a9.62,9.62,0,0,1,4.86.36A10.58,10.58,0,0,1,524.58,60a10.86,10.86,0,0,1,2.53,4.13,11.71,11.71,0,0,1,.58,5.22,43.59,43.59,0,0,1-2.46,10.8q-2,5.73-3.84,11.6a81.44,81.44,0,0,0-2.69,11.46,20.18,20.18,0,0,0,1,10.51,8.13,8.13,0,0,1,.43,4,7.43,7.43,0,0,1-1.37,3.41,8,8,0,0,1-6.6,3.19q-8.41-.59-12-9a28.49,28.49,0,0,1-1.59-4.72C498.16,109.05,497.77,107.53,497.39,106.08Z" />
      <path class="cls-1"
        d="M530.74,103.18a128.76,128.76,0,0,1,2.9-22.62,156,156,0,0,1,6.59-22.19,202.85,202.85,0,0,1,9.43-21.1A191.39,191.39,0,0,1,561,18.06a53.35,53.35,0,0,1,4.5-5.58q2.46-2.69,4.93-5.29a12.23,12.23,0,0,1,3.4-2.47,11.28,11.28,0,0,1,4.28-1,11,11,0,0,1,9,3,11.49,11.49,0,0,1,3.34,8.92,19,19,0,0,0-.37,2.82,5.16,5.16,0,0,1-.79,2.54q-7.55,13.63-15,25.88a198.82,198.82,0,0,0-12.69,24.29,91.49,91.49,0,0,0-3.48,9.28,103.49,103.49,0,0,0-3.12,12,84.54,84.54,0,0,0-1.52,12,18.6,18.6,0,0,0,1.45,9.21,8.74,8.74,0,0,1,1.6,5.72,10.63,10.63,0,0,1-2.32,5.44A8.82,8.82,0,0,1,549.3,128a10.32,10.32,0,0,1-6.24-.36,13.32,13.32,0,0,1-4.64-2.46,16.47,16.47,0,0,1-3.26-3.77,20.28,20.28,0,0,1-2.18-4.64q-.79-2.48-1.37-4.93A24.44,24.44,0,0,1,531,107C530.91,105.42,530.83,104.14,530.74,103.18Z" />
      <path class="cls-1"
        d="M566.55,103.18a129.71,129.71,0,0,1,2.9-22.62,154.73,154.73,0,0,1,6.6-22.19,200.7,200.7,0,0,1,9.42-21.1,191.44,191.44,0,0,1,11.39-19.21,54.56,54.56,0,0,1,4.49-5.58c1.64-1.79,3.29-3.55,4.93-5.29a12.27,12.27,0,0,1,3.41-2.47,11.23,11.23,0,0,1,4.28-1,11,11,0,0,1,9,3,11.45,11.45,0,0,1,3.33,8.92,20.34,20.34,0,0,0-.36,2.82,5.28,5.28,0,0,1-.8,2.54q-7.54,13.63-15,25.88a198.71,198.71,0,0,0-12.68,24.29A86.9,86.9,0,0,0,594,80.41a103.49,103.49,0,0,0-3.12,12,83.11,83.11,0,0,0-1.52,12,18.49,18.49,0,0,0,1.45,9.21,8.78,8.78,0,0,1,1.59,5.72,10.55,10.55,0,0,1-2.32,5.44,8.82,8.82,0,0,1-4.93,3.26,10.28,10.28,0,0,1-6.23-.36,13.23,13.23,0,0,1-4.64-2.46,16.51,16.51,0,0,1-3.27-3.77,20.24,20.24,0,0,1-2.17-4.64q-.79-2.48-1.38-4.93a24.41,24.41,0,0,1-.65-4.86C566.72,105.42,566.65,104.14,566.55,103.18Z" />
      <path class="cls-1"
        d="M657.9,81.72q-2.17,2.31-4.42,4.85l-4.57,5.15q-3,3.34-6,6.89t-6,6.89q-2,2-4,3.77a38.63,38.63,0,0,1-4.14,3.19,17.91,17.91,0,0,1-12.25,3.33,15.08,15.08,0,0,1-10.37-6.09,24.1,24.1,0,0,1-4.64-14.79,57.77,57.77,0,0,1,2.62-16.31,52.53,52.53,0,0,1,7.54-15,32.55,32.55,0,0,1,6.52-6.67,10.6,10.6,0,0,1,6.6-2.61,9.31,9.31,0,0,1,6.16,1.74,8.73,8.73,0,0,1,3.84,5.08,12.38,12.38,0,0,1-.36,6.81c-.77,2.9-1.57,5.83-2.39,8.77s-1.53,6.07-2.11,9.36q-1.3,5.07-.58,6.45c.49.92,1.43.94,2.83.07a31.53,31.53,0,0,0,5.44-4.78q3.33-3.48,7.18-8t8-9.5q4.14-5,8-9.49a14.27,14.27,0,0,1,5.8-3.77A18.51,18.51,0,0,1,673.2,56a17,17,0,0,1,6.09,1.23,11.29,11.29,0,0,1,4.42,3,8.37,8.37,0,0,1,1.38,4.27,35.36,35.36,0,0,1-.07,5.88,143.08,143.08,0,0,1-6.46,34,176.6,176.6,0,0,1-13.41,31.39,66.06,66.06,0,0,1-6.09,9.21,48.37,48.37,0,0,1-7.83,7.9,38.18,38.18,0,0,1-11.89,6.67,35.67,35.67,0,0,1-12.76,2,32.45,32.45,0,0,1-12.11-2.76,26.31,26.31,0,0,1-9.78-7.46,29.19,29.19,0,0,1-2-3.19l-1.75-3.19a10.54,10.54,0,0,1-.79-6.46,9.43,9.43,0,0,1,3.12-5.29,9.68,9.68,0,0,1,5.58-2.17,8.09,8.09,0,0,1,5.72,2.17,15.89,15.89,0,0,0,5.08,3.26,10.29,10.29,0,0,0,6.09.37,30.56,30.56,0,0,0,8.27-3.48,18.46,18.46,0,0,0,6.23-6.53c1.55-2.7,3-5.36,4.35-8s2.61-5.32,3.77-8.12q2.74-7.11,5.22-14.21t4.93-14.21A.86.86,0,0,0,657.9,81.72Z" />
    </g>
  </g>
</svg>